<?xml version="1.0" standalone="no"?>
<!DOCTYPE svg PUBLIC "-//W3C//DTD SVG 20010904//EN"
 "http://www.w3.org/TR/2001/REC-SVG-20010904/DTD/svg10.dtd">
<svg version="1.0" xmlns="http://www.w3.org/2000/svg"
 width="569.000000pt" height="569.000000pt" viewBox="0 0 569.000000 569.000000"
 preserveAspectRatio="xMidYMid meet">
<metadata>
Created by potrace 1.14, written by Peter Selinger 2001-2017
</metadata>
<g transform="translate(0.000000,569.000000) scale(0.100000,-0.100000)"
fill="#000000" stroke="none">
<path d="M2640 5683 c-368 -35 -669 -112 -965 -245 -704 -317 -1264 -928
-1515 -1655 -253 -728 -205 -1505 135 -2198 335 -683 941 -1208 1668 -1444
712 -231 1467 -177 2142 154 603 296 1096 817 1358 1435 454 1071 214 2305
-608 3125 -480 479 -1088 763 -1765 824 -106 10 -368 12 -450 4z m510 -363
c142 -18 318 -57 455 -101 131 -42 335 -126 335 -138 -1 -3 -238 -141 -528
-305 -1292 -734 -1364 -779 -1564 -980 -208 -207 -339 -467 -384 -761 -19
-121 -14 -343 10 -455 58 -267 188 -510 379 -707 122 -126 237 -209 392 -284
168 -81 258 -105 531 -141 14 -2 -200 -131 -603 -363 -344 -198 -630 -362
-635 -364 -16 -6 -197 122 -314 222 -379 325 -658 766 -783 1239 -99 372 -114
743 -46 1113 172 928 857 1685 1761 1944 131 38 341 78 479 90 117 11 393 6
515 -9z m1326 -584 c774 -663 1068 -1736 739 -2696 -169 -494 -462 -895 -879
-1207 -635 -475 -1480 -616 -2241 -372 -145 46 -337 127 -333 140 2 4 379 223
838 485 459 262 880 507 935 545 401 272 609 561 687 954 25 127 27 351 4 478
-80 442 -362 824 -756 1022 -148 75 -299 115 -547 147 -14 2 192 127 610 369
l632 366 101 -69 c56 -37 151 -110 210 -162z m-1454 -927 c362 -61 674 -352
772 -719 24 -87 32 -308 16 -406 -63 -392 -374 -716 -765 -799 -105 -22 -294
-22 -400 0 -352 73 -650 352 -745 696 -92 337 -3 687 240 942 226 239 547 343
882 286z"/>
<path d="M2690 3371 c-187 -59 -328 -203 -375 -382 -19 -70 -19 -209 0 -279
73 -277 357 -455 631 -397 317 68 508 383 417 691 -52 177 -203 325 -378 371
-80 20 -225 19 -295 -4z"/>
</g>
</svg>
