<svg width="100%" height="100%" viewBox="0 0 501 501" fill="none" xmlns="http://www.w3.org/2000/svg">
<ellipse cx="250.324" cy="250.843" rx="249.367" ry="249.537" fill="black"/>
<path d="M246.081 389.31C222.398 388.689 199.269 382.005 178.902 369.895C158.535 357.785 141.609 340.653 129.74 320.134C113.781 293.88 107.288 262.947 111.341 232.485C115.394 202.023 129.749 173.869 152.018 152.707C166.604 138.931 182.907 127.096 200.521 117.496C256.934 85.0379 360.326 26.175 360.326 26.175C302.772 -2.19982 236.514 -7.32285 175.286 11.868C114.059 31.0588 62.5598 73.0916 31.4641 129.252C0.351886 185.403 -7.99349 251.376 8.15546 313.513C24.3044 375.65 63.7111 429.193 118.218 463.06L246.081 389.31Z" fill="#9BADE4"/>
<path d="M253.885 111.606C277.568 112.215 300.699 118.895 321.066 131.006C341.433 143.116 358.355 160.254 370.213 180.778C402.509 236.777 393.576 304.637 347.839 347.921C333.231 361.704 316.924 373.563 299.314 383.213C242.905 415.6 139.499 474.516 139.499 474.516C197.076 503.026 263.415 508.24 324.734 489.074C386.052 469.909 437.635 427.838 468.762 371.604C499.909 315.379 508.228 249.313 491.992 187.114C475.757 124.916 436.213 71.361 381.568 37.5635L253.885 111.606Z" fill="#38DEC8"/>
<ellipse cx="247.863" cy="252.485" rx="98.4344" ry="98.5014" fill="#F06E6C"/>
<ellipse cx="248.683" cy="251.664" rx="54.1389" ry="54.1757" fill="black"/>
</svg>
